<?xml version="1.0" encoding="UTF-8" standalone="no"?>
<!-- Created with Inkscape (http://www.inkscape.org/) -->

<svg
   version="1.1"
   id="svg2"
   width="528"
   height="528"
   viewBox="0 0 528 528"
   sodipodi:docname="psd_logo-2color-fulllandscape.eps"
   xmlns:inkscape="http://www.inkscape.org/namespaces/inkscape"
   xmlns:sodipodi="http://sodipodi.sourceforge.net/DTD/sodipodi-0.dtd"
   xmlns="http://www.w3.org/2000/svg"
   xmlns:svg="http://www.w3.org/2000/svg">
  <defs
     id="defs6">
    <clipPath
       clipPathUnits="userSpaceOnUse"
       id="clipPath36">
      <path
         d="M 3779.95,1980 C 3789.25,670.059 2387.34,-217.738 1207.15,350.809 -162.418,998.762 -162.359,2961.35 1207.18,3609.26 2387.41,4177.64 3789.34,3290.01 3779.95,1980 Z"
         id="path34" />
    </clipPath>
  </defs>
  <sodipodi:namedview
     id="namedview4"
     pagecolor="#ffffff"
     bordercolor="#000000"
     borderopacity="0.25"
     inkscape:showpageshadow="2"
     inkscape:pageopacity="0.0"
     inkscape:pagecheckerboard="0"
     inkscape:deskcolor="#d1d1d1" />
  <g
     id="g8"
     inkscape:groupmode="layer"
     inkscape:label="ink_ext_XXXXXX"
     transform="matrix(1.3333333,0,0,-1.3333333,0,528)">
    <g
       id="g10"
       transform="scale(0.1)">
      <path
         d="m 718.211,2539.37 c 4.133,9.45 5.937,18.04 5.406,25.79 -0.535,7.73 -2.527,14.49 -5.972,20.27 -3.438,5.77 -7.54,10.63 -12.286,14.59 -4.75,3.95 -9.129,6.81 -13.136,8.57 -3.153,1.38 -7.59,2.72 -13.328,4.04 -5.739,1.32 -12.012,1.59 -18.832,0.83 -6.817,-0.77 -13.497,-3.56 -20.04,-8.37 -6.543,-4.81 -12.195,-12.66 -16.96,-23.54 l -19.559,-44.66 95.336,-41.74 z m -160.156,57.35 c 11.406,26.05 25.429,46.18 42.05,60.39 16.637,14.21 34.965,22.57 54.989,25.06 20.027,2.49 40.926,-1.03 62.676,-10.56 12.882,-5.65 24.996,-13.25 36.328,-22.82 11.34,-9.57 20.449,-20.9 27.34,-33.98 6.898,-13.09 10.46,-28.12 10.695,-45.12 0.238,-16.99 -4.16,-35.79 -13.192,-56.4 l -19.55,-44.66 100.058,-43.83 -27.269,-62.26 -316.071,138.41 41.946,95.77"
         style="fill:#2c3c57;fill-opacity:1;fill-rule:nonzero;stroke:none"
         id="path12" />
      <path
         d="m 715.102,2880.56 150.472,180.95 50.465,-41.96 -107.008,-128.69 56.59,-47.06 94.719,113.91 50.47,-41.97 -94.72,-113.9 57.308,-47.66 111.212,133.73 50.46,-41.96 -154.672,-186 -265.296,220.61"
         style="fill:#2c3c57;fill-opacity:1;fill-rule:nonzero;stroke:none"
         id="path14" />
      <path
         d="m 1480.05,3068.95 -190.5,304.41 -58.02,-36.31 111.45,-175.52 -321.73,59.96 -2.39,-1.49 190.25,-304.02 58.43,36.56 -109.36,172.18 320.28,-56.76 1.59,0.99"
         style="fill:#2c3c57;fill-opacity:1;fill-rule:nonzero;stroke:none"
         id="path16" />
      <path
         d="m 1492.73,3448.72 65,19.9 101.01,-329.93 -65,-19.9 -101.01,329.93"
         style="fill:#2c3c57;fill-opacity:1;fill-rule:nonzero;stroke:none"
         id="path18" />
      <path
         d="m 2091.51,3172.14 -12.92,358.88 -68.4,-2.47 8.84,-207.74 -248.74,212.71 -2.81,-0.11 12.91,-358.41 68.87,2.48 -8.7,203.79 249.07,-209.2 1.88,0.07"
         style="fill:#2c3c57;fill-opacity:1;fill-rule:nonzero;stroke:none"
         id="path20" />
      <path
         d="m 2457.63,3366.59 c -10.76,10.4 -22.07,19.66 -33.95,27.77 -11.88,8.12 -23.54,13.74 -34.99,16.87 -14.18,3.89 -26.1,4.08 -35.81,0.59 -9.71,-3.51 -16.14,-10.98 -19.27,-22.43 -2.15,-7.85 -0.99,-15.7 3.51,-23.57 4.48,-7.87 10.96,-15.56 19.44,-23.07 8.47,-7.5 17.44,-14.66 26.92,-21.47 8.65,-6.26 17.06,-13.18 25.19,-20.75 8.13,-7.58 14.95,-16.09 20.47,-25.54 5.5,-9.45 9.02,-20.29 10.53,-32.53 1.5,-12.25 0.07,-26.35 -4.31,-42.33 -4.63,-16.88 -13.29,-31.35 -25.99,-43.43 -12.71,-12.07 -28.73,-20.25 -48.03,-24.51 -19.33,-4.27 -41.34,-3.01 -66.05,3.75 -12.67,3.47 -25.2,8.29 -37.61,14.44 -12.42,6.14 -24.23,13.6 -35.43,22.34 -11.22,8.74 -21.59,18.8 -31.12,30.16 l 42.94,43.16 c 6.25,-7.88 13.39,-15.26 21.39,-22.15 7.99,-6.89 16.33,-12.82 25.02,-17.78 8.69,-4.98 16.94,-8.54 24.79,-10.68 7.83,-2.15 16.05,-3.19 24.66,-3.11 8.61,0.07 16.28,2.1 23.05,6.07 6.76,3.99 11.46,10.79 14.1,20.45 1.82,6.62 1.29,13.25 -1.6,19.88 -2.88,6.62 -7.4,13.21 -13.54,19.74 -6.15,6.55 -13.14,12.68 -20.97,18.39 -9.18,6.72 -18.48,14.13 -27.93,22.24 -9.45,8.09 -17.91,17.13 -25.38,27.12 -7.47,9.99 -12.65,21.28 -15.51,33.9 -2.86,12.61 -2.1,26.9 2.27,42.88 5.28,19.29 14.16,34.84 26.64,46.66 12.47,11.81 27.67,19.71 45.63,23.72 17.94,3.99 37.28,3.63 58.03,-1.08 26.83,-7.35 47.74,-16.48 62.73,-27.39 15,-10.92 27.92,-22.56 38.8,-34.94 l -38.62,-43.37"
         style="fill:#2c3c57;fill-opacity:1;fill-rule:nonzero;stroke:none"
         id="path22" />
      <path
         d="m 2622.91,3146.28 c -5.78,-9.3 -8.52,-19.92 -8.23,-31.87 0.29,-11.97 3.36,-23.45 9.22,-34.45 5.85,-11 14.22,-19.89 25.09,-26.66 11.95,-7.42 24.2,-11.37 36.81,-11.85 12.58,-0.47 24.24,1.85 34.96,6.96 10.72,5.11 18.97,12.3 24.76,21.59 l 114.91,184.7 56.91,-35.41 -115.64,-185.9 c -13.37,-21.5 -30.53,-37.23 -51.46,-47.21 -20.94,-9.98 -43.37,-14.07 -67.26,-12.27 -23.92,1.81 -46.87,9.57 -68.9,23.27 -21.76,13.54 -38.67,30.59 -50.72,51.16 -12.06,20.55 -18.23,42.43 -18.52,65.62 -0.3,23.19 6.24,45.54 19.61,67.04 l 115.66,185.89 57.72,-35.91 -114.92,-184.7"
         style="fill:#2c3c57;fill-opacity:1;fill-rule:nonzero;stroke:none"
         id="path24" />
      <path
         d="m 3079.5,3074.73 44.72,-51.19 -210.44,-183.82 106.71,-122.16 -49.44,-43.18 -151.42,173.37 259.87,226.98"
         style="fill:#2c3c57;fill-opacity:1;fill-rule:nonzero;stroke:none"
         id="path26" />
      <path
         d="m 3202.66,2503.34 -28.49,61.94 91.07,3.31 z m 199.39,126.33 -390.87,-8.39 28.01,-60.91 73.07,2.66 47.84,-104.06 -50.22,-52.37 32.89,-71.56 260.85,291.22 -1.57,3.41"
         style="fill:#2c3c57;fill-opacity:1;fill-rule:nonzero;stroke:none"
         id="path28" />
      <g
         id="g30">
        <g
           id="g32"
           clip-path="url(#clipPath36)">
          <path
             d="m 656.137,1678.35 c 0,-3.52 -0.684,-7.04 -1.93,-10.45 2.043,-2.21 4.086,-4.37 6.133,-6.58 11.238,-12.23 22.773,-24.28 35.648,-35.05 3.918,-3.27 8.078,-6.28 12.418,-8.97 11.418,-7.08 23.485,-13.09 36.032,-18.33 13.23,-5 26.687,-9.37 40.144,-13.86 7.023,-2.32 13.977,-4.89 20.988,-7.26 15.258,-5.16 76.106,-46.72 102.684,-45.42 18.34,0.85 36.851,-2.21 54.906,-4.77 12.492,-1.76 24.988,-3.74 37.48,-5.51 12.27,-1.3 24.59,-2.1 36.97,-1.76 10.22,0.35 19.81,-3.01 28.05,-8.29 0.57,-0.17 269.71,62.79 352.37,78.65 358.71,68.8 471.23,76.47 515.57,79.34 56.33,3.57 160.32,-17.6 216.54,-12.32 33.5,3.18 127.72,-4.43 161.11,0 28.74,-12.59 204.71,-46.1 256.55,-50.47 41.63,-3.47 83.25,-7.16 124.99,-9.77 19.36,-1.25 36.39,-7.21 52.24,-17.04 3.46,-2.15 6.36,-5.28 10.79,-8.97 -6.65,-3.58 -11.82,-6.7 -17.27,-9.31 -15.27,-7.5 -34.74,-16 -45.88,-22.2 -12.67,-7.06 -67.27,-41.26 -71.75,-46.25 -9,-9.52 436.94,-44.26 485.38,-42.04 26.88,2.85 108,49.11 165.18,61.94 2.95,0.68 84.36,55.66 109.06,64.3 10.62,3.69 20.84,8.63 30.67,13.91 6.19,3.4 12.26,7.78 16.81,12.94 16.8,19.03 8.29,45.66 -16.87,52.93 -6.19,1.82 -13.06,2.5 -19.48,2.21 -12.83,-0.62 -25.61,-2.04 -38.33,-3.57 -6.36,-0.8 -11.98,-0.4 -18,2.21 -7.61,3.24 -2679.203,19.76 -2679.203,19.76"
             style="fill:#66a281;fill-opacity:1;fill-rule:nonzero;stroke:none"
             id="path38" />
          <path
             d="m 3103.16,674.66 c -13.63,7.172 -22.6,13.09 -32.83,16.84 -21.59,8.082 -43.18,16.84 -65.78,22.07 -81.83,18.539 -164.28,35.149 -246.1,53.809 -47.99,10.922 -95.34,23.551 -142.44,36.742 -24.12,6.809 -45.81,18.109 -62.99,34.52 -23.43,22.371 -24.27,60.941 -1.36,83.839 10.05,10.04 22.4,19.071 35.69,25.661 20.33,10.007 41.67,19.8 64.02,25.14 32.49,7.949 65.07,15.848 97.85,22.879 13.87,2.981 25.79,11.12 34.63,22.21 l 0.13,0.17 c 4.82,5.93 9.01,12.34 11.15,19.68 l 2.71,9.31 c 5.22,17.95 18.79,32.22 36.38,38.53 7.21,2.58 14.43,4.94 20.98,7.64 l 0.46,0.19 c 3.07,-0.41 6.13,-0.82 9.2,-1.23 13.89,-1.86 30.23,-5.53 35.44,-18.55 24.62,-14.7 53.62,-21.96 82.26,-20.59 6.55,0.32 13.51,0.99 19.32,-2.07 7.67,-4.04 10.85,-13.19 16.38,-19.88 20.74,-25.09 67.31,-10.12 88.81,-34.55 5.97,-6.79 9.04,-15.801 15.3,-22.321 5.65,-5.867 16.91,-5.23 20.88,-12.347 7.52,-13.493 81.83,-40.704 155.12,-63.02 26.94,-8.203 52,-21.641 73.9,-39.344 l 10.93,-8.847 c -20.15,-24.981 -40.93,-49.43 -62.37,-73.282 l -6.91,-7.777 c -39.04,-42.953 -80.14,-84 -123.12,-123 l -13.4,-11.891 -74.24,39.469"
             style="fill:#66a281;fill-opacity:1;fill-rule:nonzero;stroke:none"
             id="path40" />
          <path
             d="m 2475.47,1234.2 c -38.96,-3.41 -116.28,-8.13 -156.2,-8.81 -59.06,-1.02 -118.11,-1.14 -177.17,-1.65 -3.18,0 -6.41,-0.28 -11.13,-0.51 4.26,-7.89 10.11,-12.78 16.58,-17.09 11.02,-7.21 23.51,-11.07 36.46,-13.91 25.84,-5.63 52.24,-7.27 78.65,-8.01 60.07,-1.76 120.21,-2.67 180.34,-4.43 79.96,-2.33 159.74,-6.59 239.35,-13.74 20.78,-1.89 41.54,-3.87 62.26,-6.14 -5.04,2.35 -11.37,3.36 -16.93,4.22 -10.04,1.55 -22.32,9.19 -18.72,18.68 -18.75,-3.96 -45.82,-2.39 -47.85,16.68 -8.68,0.19 -17.36,0.38 -26.04,0.56 -2.03,8.24 -10.69,14.27 -19.11,13.31 -6.66,7.92 -10.08,21.62 -9.62,34.61 0,0 -98.1,-10.9 -130.87,-13.77"
             style="fill:#66a281;fill-opacity:1;fill-rule:nonzero;stroke:none"
             id="path42" />
          <path
             d="m 591.371,1483.13 c -1.16,0.09 -1.414,0.11 -2.57,0.2 -22.946,-38.74 -20.594,-101.95 -54.723,-129.67 -76.457,-11.15 -153.351,-19.96 -229.125,-35.2 -10.176,25.77 72.387,-164.29 106.324,-224.14 2.817,-4.56 4.391,-6.51 5.766,-10.26 21.781,-37.83 44.898,-74.79 69.285,-110.83 10.274,9.168 19.684,19.352 28.215,30.57 1.023,1.36 1.934,2.78 3.863,5.62 -4.031,-0.29 -6.644,-0.51 -9.258,-0.63 -10.218,-0.45 -20.441,-1.42 -30.664,-1.08 -6.414,0.23 -13.117,1.59 -18.625,8.07 2.899,2.33 5.852,4.54 8.692,6.93 14.195,11.81 28.449,23.62 42.586,35.54 2.558,2.16 4.429,5 6.133,8.24 -17.207,-5.91 -33.387,-14.65 -52.469,-12.33 -2.274,0.29 -4.371,1.82 -8.176,3.47 3.52,3.52 5.793,6.47 8.688,8.74 8.687,6.87 17.773,13.29 26.347,20.27 14.992,12.27 27.598,26.41 40.035,44.07 -16.297,-5.68 -29.812,-15.16 -47.586,-6.93 3.239,4.83 5.454,9.03 8.457,12.66 14.145,17.15 26.747,35.27 37.141,54.63 1.816,3.29 3.352,6.65 5.902,11.87 -16.632,-5.79 -31.629,-9.65 -47.582,0.62 7.153,3.24 13.512,5.46 19.078,8.81 5.793,3.52 11.188,7.77 16.125,12.32 5,4.48 9.204,9.65 13.403,15.22 -11.07,-4.26 -21.352,-11.59 -34.75,-5.8 0.906,2.39 1.305,4.38 2.328,6.02 4.824,7.73 9.426,15.56 14.875,22.89 24.816,33.22 38.387,70.81 48.894,109.53 5.793,21.24 10.45,42.76 15.618,64.17 1.074,4.66 2.097,9.31 3.175,13.97 0.856,0.11 1.707,0.17 2.614,0.28 1.019,-4.25 1.988,-8.46 3.125,-12.66 12.547,-45.43 31.172,-88.58 56.383,-129.13 5.171,-8.23 11.585,-15.84 17.605,-23.62 1.93,-2.5 5.055,-5.28 1.988,-7.95 -1.929,-1.65 -6.246,-2.38 -8.8,-1.59 -7.329,2.16 -14.313,5.23 -21.297,8.18 -3.914,1.64 -7.606,3.8 -11.981,5.17 3.918,-10.06 11.641,-17.55 18.34,-25.61 6.703,-8.18 13.742,-16.13 20.84,-23.97 7.215,-8 14.765,-15.73 22.941,-24.47 -13.117,-4.37 -24.133,1.42 -36.398,1.87 8.465,-16.29 17.832,-31.06 29.246,-44.4 11.414,-13.29 24.074,-25.67 36.398,-38.62 -4.543,-6.24 -11.246,-6.47 -17.773,-6.13 -10.109,0.51 -19.25,3.92 -27.656,9.2 -3.239,2.04 -6.414,4.09 -10.164,5.56 13.742,-19.25 30.777,-35.26 51.164,-47.98 -0.797,-6.3 -5.336,-8.18 -10.11,-8.18 -7.609,0 -15.273,0.86 -22.883,1.71 -3.121,0.4 -6.132,1.65 -9.652,1.7 16.977,-18.11 38.613,-30.66 59.567,-42.93 0.738,-6.53 -3.125,-9.2 -7.098,-11.69 -9.598,-6.02 -20.215,-9.54 -31.516,-11.53 -3.578,-0.63 -7.097,-1.19 -12.949,-2.22 4.547,-3.8 7.555,-6.58 10.848,-8.97 18.285,-13.46 38.613,-23.679 59.453,-33.101 6.644,-2.961 13.289,-5.8 19.816,-8.918 2.785,-1.3 5.34,-3.121 9.824,-5.851 -18.168,-7.828 -35.378,-8.059 -52.238,-6.469 -16.527,1.59 -32.824,5.789 -50.312,9.027 22.824,-18.058 49.004,-29.019 76.203,-38.726 -1.363,-7.383 -6.414,-10.852 -11.469,-14.031 -14.648,-9.36 -31.289,-13.34 -48.719,-14.36 -8.406,-0.461 -16.808,-0.062 -27.258,-0.062 2.727,-3.071 4.372,-5.34 6.528,-7.207 22.887,-19.762 49.519,-34.133 77.512,-46.391 3.578,-1.539 7.156,-3.18 10.562,-4.723 0.453,-7.378 -4.09,-11.519 -8.574,-15.558 -13.231,-11.918 -29.188,-19.418 -46.508,-24.578 -3.406,-1.032 -6.812,-1.93 -12.094,-3.473 4.996,-3.738 8.688,-6.867 12.774,-9.539 20.957,-13.68 44.011,-23.219 68.429,-29.98 4.879,-1.36 9.879,-2.61 14.704,-4.258 9.769,-3.352 10.96,-8.063 3.464,-14.992 -3.918,-3.579 -8.687,-6.301 -13.113,-9.309 -1.766,-1.141 -3.691,-2.051 -6.93,-3.859 3.52,-1.25 5.907,-2.274 8.403,-2.903 35.207,-8.398 70.98,-9.199 107.039,-7.777 21.637,0.848 43.269,0.848 64.906,1.187 1.816,0 3.773,0 5.449,-0.339 7.711,-1.54 18.117,0.851 24.817,7.902 7.781,8.117 15.613,16.18 22.997,25.098 -19.021,-5.34 -37.079,-4.09 -54.4,3.968 -4.597,2.102 -8.347,5.391 -9.597,11.364 22.316,9.707 41.625,22.648 54.968,42.468 -9.765,1.141 -19.078,1.418 -27.878,3.52 -9.258,2.16 -17.493,6.762 -23.286,15.851 30.555,18.43 47.895,45.938 62.313,77.45 v 0.621 c -15.777,-3.051 -30.492,-6.364 -44.481,1.078 -2.214,1.199 -3.578,3.859 -5.793,6.359 34.582,24.422 44.124,60.883 58.774,96.651 -6.59,-2.21 -11.19,-4.09 -16.016,-5.22 -3.121,-0.74 -6.586,-0.74 -9.82,-0.52 -8.121,0.57 -10.223,4.66 -5.566,10.85 6.3,8.41 13.398,16.35 19.192,25.1 5.51,8.23 9.82,17.2 14.03,26.52 -10.06,-3.47 -19.367,-8.12 -29.305,-0.46 0.055,1.37 -0.285,2.9 0.34,4.03 14.535,27.26 29.135,54.57 43.895,81.77 0.94,1.74 2.34,3.35 4.03,5.32 l 0.17,0.95 c 4.49,23.51 5.34,24.13 27.54,36.29 l 0.88,0.44 c 11.58,26.66 27.6,69.53 32.35,74.16 3.23,-8.75 11,-16.64 14.58,-24.59 3.43,-7.65 7.47,-15.04 11.62,-22.34 8.59,3.53 17.21,7 25.86,10.43 37.48,14.82 74.96,29.58 112.1,45.14 23.45,9.83 45.99,21.58 65.98,36.8 11.58,8.8 21.63,19.36 32.25,29.24 1.2,1.14 8.06,8.35 9.6,16.13 3.49,8.33 4.94,16.34 4.21,24.1 -282.1,-8.35 -707.475,1.77 -729.975,-12.12 -19.758,36.85 -36.058,74.56 -52.414,112.26"
             style="fill:#66a281;fill-opacity:1;fill-rule:nonzero;stroke:none"
             id="path44" />
          <path
             d="m 1097.56,1268.08 c -4.75,-4.63 -19.97,-44.35 -32.35,-74.16 -4.05,-9.73 -7.18,-17.2 -7.59,-19.82 3.53,0.34 6.93,0.68 12.32,1.2 -5.96,-10.23 -10.84,-19.37 -16.46,-28.06 -2.84,-4.31 -3.01,-7.78 -0.68,-12.26 7.38,-14.25 15.39,-28.05 26.29,-40.32 3.41,-3.8 7.66,-7.66 5.62,-15.05 -7.25,1.14 -14.66,2.28 -23.09,3.57 1.07,-4.39 2.43,-8.62 4.04,-12.73 4.26,-6.71 8.75,-12.94 13.94,-18.72 8.29,-9.2 16.64,-18.34 24.98,-27.54 l -1.3,-2.16 c -11.64,2.13 -23.28,4.26 -35.08,6.44 0.33,-0.99 0.67,-1.96 1.01,-2.94 12.4,-25.34 32.04,-46.331 47.92,-70.839 -12.66,-2.961 -22.77,-0.23 -33.95,5.45 1.41,-5.45 2.27,-9.09 3.35,-12.61 6.02,-19.531 13.57,-38.441 23.79,-56.383 2.84,-4.937 6.3,-10 4.99,-17.437 -4.19,0.68 -8.34,0.57 -11.64,2.098 -8.51,3.921 -16.63,8.582 -24.87,13.011 -1.98,1.02 -3.8,2.211 -5.73,3.352 0.96,-5.57 3.12,-9.832 5.85,-13.742 12.77,-18.461 25.66,-36.739 38.56,-55.141 2.95,-4.148 6.58,-8.07 6.81,-14.25 -16.13,-4.488 -28.85,4.199 -43.21,8.973 6.51,-12.422 17.68,-27.231 30.12,-40.723 6.1,-6.609 12.49,-12.937 18.82,-18.449 3.92,-3.41 7.38,-7.211 12.78,-12.442 -18.45,-4.257 -32.93,2.442 -49.01,5.622 7.27,-8.969 14.71,-14.25 26.18,-14.59 22.32,-0.68 44.63,-2.328 66.95,-3.239 9.6,-0.339 19.25,0.118 28.91,0.168 -11.94,10.411 -24.88,18.832 -38.48,25.981 -17.12,9 -35.31,15.93 -54.14,21.719 l 0.23,2.562 c 11.18,2.777 22.37,5.617 34.8,8.738 -5.28,3.86 -9.31,6.821 -13.28,9.77 16.47,-1.481 31.97,-6.641 50.08,1.191 -24.3,14.649 -42.02,32.711 -58.15,54.969 12.44,-4.43 22.32,-8.797 32.71,-11.41 10.39,-2.617 21.18,-2.109 34.02,2.492 -26.86,14.027 -49.01,29.867 -66.9,53.949 17.38,-5.34 32.43,-9.48 49.58,0.68 -21.64,13.629 -41.11,26.41 -55.65,47.082 17.77,-5.742 33.73,-8.012 49.86,0.68 -17.61,10.449 -33.62,21.968 -48.04,38.039 12.66,-0.789 23.62,-5.563 34.24,2.898 -12.84,12.601 -27.37,23.111 -35.21,40.141 14.54,-6.35 24.82,-8.51 30.89,-6.47 -10.67,15.39 -24.42,28.96 -30.55,47.02 15.79,-3.29 26.24,-3.58 31.29,-0.8 -16.69,16.07 -30.89,33.51 -34.92,56.85 5.56,-2.16 10.16,-4.43 14.99,-5.74 4.88,-1.31 10.9,-2.95 14.25,1.65 3.07,4.26 -2.1,7.49 -4.49,10.62 -14.02,18.62 -26,38.16 -33.84,59.79 -0.85,2.33 -1.19,4.77 -1.82,7.67 7.56,-2.96 11.02,-12.04 21.81,-8.18 -5.05,8.01 -10,15.44 -14.42,23.22 l -0.93,1.68 c -4.15,7.3 -8.19,14.69 -11.62,22.34 -3.58,7.95 -11.35,15.84 -14.58,24.59"
             style="fill:#2c3c57;fill-opacity:1;fill-rule:nonzero;stroke:none"
             id="path46" />
          <path
             d="m 1625.25,861.551 c -7.21,-22.539 -8.64,-23.871 -40.14,-55.36 8.18,-0.339 13.34,-0.57 19.31,-0.8 -6.19,-11.981 -18.57,-31.172 -27.09,-43.442 14.37,-4.199 24.86,5.449 37.02,9.77 -9.14,-15.848 -23.68,-26.457 -39.07,-36.059 5.39,-12.949 17.15,-7.101 26.46,-9.14 -9.6,-20.79 -23.62,-36.911 -44.24,-49.348 14.03,-10.051 27.04,-3.633 41.06,-1.192 -11.7,-21.41 -26.57,-38.218 -48.72,-49.8 3.81,-2.27 7.21,-3.981 10.85,-4.371 12.21,-1.309 23.11,2.441 33.27,8.461 2.56,1.472 5.17,2.89 7.72,4.312 l 1.37,-1.762 c -5.94,-8.711 -12.08,-17.25 -18.78,-25.3 -14.2,-17.02 -31.23,-31.641 -56.29,-39.551 3.01,-3.059 4.37,-5.617 6.53,-6.469 3.97,-1.531 8.35,-2.551 12.66,-3.012 14.14,-1.468 27.77,0.801 41,5.621 2.9,1.032 5.96,1.879 8.97,2.84 -5.96,-9.988 -13.91,-18 -23.34,-24.187 -9.82,-6.41 -20.15,-12.723 -31.17,-16.922 -10.51,-3.918 -22.2,-5.051 -35.44,-7.84 3.35,-3.012 5,-5.281 7.33,-6.359 5.22,-2.442 10.62,-4.711 16.24,-6.243 24.47,-6.589 49.29,-6.867 73.93,-1.136 11.25,2.558 22.09,6.648 33.17,10.047 0.9,-38.5 1.93,-72.668 0.72,-115.61 -6.82,-0.168 -11.51,0.41 -17.18,1.071 -6.15,0.722 -12.3,1.441 -18.45,2.179 -12.38,1.492 -24.75,3.063 -37.1,4.813 -28.96,4.148 -56.38,13.008 -80.18,29.359 -16.81,11.527 -32.25,24.758 -48.6,36.91 -6.42,4.77 -8.46,10.34 -8.41,17.828 0.06,29.813 -0.4,59.68 -0.62,89.551 0,1.531 0.51,3.07 0.96,5.57 4.09,-1.929 7.27,-3.41 10.45,-4.941 14.54,-7.051 29.93,-11.25 46.22,-12.269 4.95,-0.282 10.28,-0.969 15.16,4.371 -12.71,10.05 -25.61,19.308 -37.3,29.757 -9.23,8.204 -15.3,18.524 -21.74,29.293 -2.11,3.547 -4.28,7.149 -6.6,10.739 31.86,-13.399 39.18,-14.481 50.09,-6.871 -6.36,5.742 -13.01,10.961 -18.63,17.031 -5.96,6.48 -11.41,13.461 -16.13,20.73 -4.48,6.821 -8.57,13.969 -11.41,23.059 8.29,-2.559 14.99,-5.059 21.92,-6.699 6.87,-1.649 14.08,-3.809 21.52,2.609 -25.72,16.52 -44.06,37.02 -51.73,65.301 8.29,-2.039 15.22,-4.258 22.37,-5.34 2.62,-0.34 5.63,2.16 8.46,3.301 -1.13,2.379 -1.7,5.219 -3.46,6.98 -13.34,13.168 -22.6,28.68 -30.15,45.141 -1.02,2.269 -1.42,4.828 -2.1,7.219 5.05,1.019 10.16,-4.602 13.63,2.437 -8.12,11.07 -14.71,23.051 -19.54,36.57 7.55,0.223 13.57,-6.589 20.73,-1.25 -0.4,1.473 -0.46,2.954 -1.19,3.973 -15.79,23.789 -23.11,50.199 -28.45,77.34 -1.59,8.41 -4.21,16.641 -6.65,24.871 -0.62,1.988 -1.39,5.277 -3.92,5.738 -6.51,1.168 -6.13,-8.519 -7.1,-13.179 -2.49,-11.75 -4.76,-23.621 -7.77,-35.262 -6.48,-24.981 -12.78,-50.027 -23.57,-73.867 -3.06,-6.883 0,-9.832 7.78,-7.84 4.32,1.078 8.29,3.18 13.52,5.34 -8.24,-22.492 -23.11,-39.871 -36.86,-58.551 9.14,-3.52 16.07,0.059 24.25,3.008 -1.08,-2.887 -1.53,-4.481 -2.27,-5.899 -7.27,-13.179 -15.56,-25.672 -26.69,-36.351 -2.33,-2.207 -4.71,-4.43 -6.59,-6.918 -2.72,-3.641 -1.59,-7.27 3.01,-7.61 5.28,-0.402 10.73,0.68 16.07,1.59 2.84,0.508 5.45,1.981 9.37,3.461 -5.05,-12.152 -11.13,-21.863 -19.31,-30.383 -2.67,-2.777 -5.5,-5.461 -8.34,-8.129 -3.35,-3.171 -6.73,-6.32 -10,-9.589 -2.5,-2.551 -4.43,-5.559 -6.58,-8.403 l 1.25,-2.379 c 3.46,0 6.98,-0.398 10.39,0.051 5.45,0.75 10.59,2.172 15.55,3.961 11.53,4.168 22.01,10.609 32.66,17.168 -3.52,-7.328 -7.67,-14.027 -12.21,-20.5 -2.92,-4.148 -5.96,-8.23 -9.1,-12.23 -1.63,-2.079 -3.24,-4.168 -4.99,-6.168 -5.33,-6.082 -11.07,-11.871 -17.14,-17.321 -5.91,-5.281 -12.55,-9.879 -20.56,-16.07 12.61,-4.711 23,-3.75 32.99,-0.738 9.83,2.949 19.31,7.039 30.04,11.07 -14.59,-24.133 -31.57,-44.742 -58.14,-57.121 4.08,-6.992 10.16,-6.129 15.83,-6.02 3.98,0.059 8.52,1.758 11.93,0.508 16.24,-6.019 30.04,-1.129 43.38,7.211 2.22,1.36 4.66,2.559 6.99,3.809 0.62,-25.61 -3.25,-57.25 -3.45,-72.047 -2.05,0.738 -3.18,0.848 -3.92,1.418 -27.14,21.012 -53.05,31.449 -85.02,44.68 -18.17,7.492 -35.38,16.691 -50.82,28.5 -26.4,20.269 -54.63,38.05 -83.25,55.421 -15.27,9.258 -28.67,21.239 -42.81,32.09 -1.71,1.301 -2.73,3.289 -4.66,5.789 37.42,-9.14 57.98,-8.922 67.75,0.11 -9.09,4.031 -18.69,7.5 -27.37,12.32 -22.49,12.551 -42.93,27.719 -60.76,45.602 -7.96,7.949 -14.09,17.437 -20.84,26.41 -1.2,1.527 -1.14,3.918 -1.99,7.148 13.85,-6.41 25.72,-13.289 42.08,-15.39 -9.8,8.511 -17.95,17.55 -24.72,27.199 -11.11,15.863 -18.45,33.402 -23.04,53.101 12.83,-5.91 24.02,-11.078 35.21,-16.242 l 1.47,1.762 c -11.87,13.91 -21.97,28.789 -29.53,45.14 -10.84,23.399 -16.8,42.079 -16.01,52.411 10.45,-6.582 20.5,-12.891 30.55,-19.25 l 1.93,1.648 c -6.19,13.742 -12.78,27.313 -18.51,41.231 -5.73,13.96 -10.56,28.218 -15.79,42.359 l 1.71,1.359 c 11.58,-5.957 21.75,-14.648 34.98,-17.597 -16.38,17.16 -25.01,37.399 -32.32,58.639 -0.34,0.98 -0.68,1.95 -1.01,2.94 -1.31,3.87 -2.59,7.75 -3.87,11.67 10.11,-1.93 17.55,-7.78 26.41,-7.72 -6.7,9.02 -14.03,17.54 -19.71,26.91 -2.17,3.54 -3.86,7.28 -5.37,11.12 -1.61,4.11 -2.97,8.34 -4.04,12.73 -0.64,2.61 -1.21,5.26 -1.72,7.95 8.58,-2.5 16.13,-4.77 23.74,-6.98 -24.53,19.76 -33.11,47.58 -44.24,75.41 -1.01,-1.27 -1.92,-2.33 -2.78,-3.32 -1.69,-1.97 -3.09,-3.58 -4.03,-5.32 -14.76,-27.2 -29.36,-54.51 -43.895,-81.77 -0.625,-1.13 -0.285,-2.66 -0.34,-4.03 9.938,-7.66 19.245,-3.01 29.305,0.46 -4.21,-9.32 -8.52,-18.29 -14.03,-26.52 -5.794,-8.75 -12.892,-16.69 -19.192,-25.1 -4.657,-6.19 -2.555,-10.28 5.566,-10.85 3.234,-0.22 6.699,-0.22 9.82,0.52 4.826,1.13 9.426,3.01 16.016,5.22 -14.65,-35.768 -24.192,-72.229 -58.774,-96.651 2.215,-2.5 3.579,-5.16 5.793,-6.359 13.989,-7.442 28.704,-4.129 44.481,-1.078 l 0.32,0.058 -0.32,-0.679 c -14.418,-31.512 -31.758,-59.02 -62.313,-77.45 5.793,-9.089 14.028,-13.691 23.286,-15.851 8.8,-2.102 18.113,-2.379 27.878,-3.52 -13.343,-19.82 -32.652,-32.761 -54.968,-42.468 1.25,-5.973 5,-9.262 9.597,-11.364 17.321,-8.058 35.379,-9.308 54.4,-3.968 -7.384,-8.918 -15.216,-16.981 -22.997,-25.098 -6.7,-7.051 -15.676,-9.301 -24.817,-7.902 -1.687,0.261 -3.633,0.339 -5.449,0.339 -21.637,-0.339 -43.269,-0.339 -64.906,-1.187 -36.059,-1.422 -71.832,-0.621 -107.039,7.777 -2.496,0.629 -4.883,1.653 -8.403,2.903 3.239,1.808 5.164,2.718 6.93,3.859 4.426,3.008 9.195,5.73 13.113,9.309 7.496,6.929 6.305,11.64 -3.464,14.992 -4.825,1.648 -9.825,2.898 -14.704,4.258 -24.418,6.761 -47.472,16.3 -68.429,29.98 -4.086,2.672 -7.778,5.801 -12.774,9.539 5.282,1.543 8.688,2.441 12.094,3.473 17.32,5.16 33.277,12.66 46.508,24.578 4.484,4.039 9.027,8.18 8.574,15.558 -3.406,1.543 -6.984,3.184 -10.562,4.723 -27.993,12.258 -54.625,26.629 -77.512,46.391 -2.156,1.867 -3.801,4.136 -6.528,7.207 10.45,0 18.852,-0.399 27.258,0.062 17.43,1.02 34.071,5 48.719,14.36 5.055,3.179 10.106,6.648 11.469,14.031 -27.199,9.707 -53.379,20.668 -76.203,38.726 17.488,-3.238 33.785,-7.437 50.312,-9.027 16.86,-1.59 34.07,-1.359 52.238,6.469 -4.484,2.73 -7.039,4.551 -9.824,5.851 -6.527,3.118 -13.172,5.957 -19.816,8.918 -20.84,9.422 -41.168,19.641 -59.453,33.101 -3.293,2.39 -6.301,5.17 -10.848,8.97 5.852,1.03 9.371,1.59 12.949,2.22 11.301,1.99 21.918,5.51 31.516,11.53 3.973,2.49 7.836,5.16 7.098,11.69 -20.954,12.27 -42.59,24.82 -59.567,42.93 3.52,-0.05 6.531,-1.3 9.652,-1.7 7.61,-0.85 15.274,-1.71 22.883,-1.71 4.774,0 9.313,1.88 10.11,8.18 -20.387,12.72 -37.422,28.73 -51.164,47.98 3.75,-1.47 6.925,-3.52 10.164,-5.56 8.406,-5.28 17.547,-8.69 27.656,-9.2 6.527,-0.34 13.23,-0.11 17.773,6.13 -12.324,12.95 -24.984,25.33 -36.398,38.62 -11.414,13.34 -20.781,28.11 -29.246,44.4 12.265,-0.45 23.281,-6.24 36.398,-1.87 -8.176,8.74 -15.726,16.47 -22.941,24.47 -7.098,7.84 -14.137,15.79 -20.84,23.97 -6.699,8.06 -14.422,15.55 -18.34,25.61 4.375,-1.37 8.067,-3.53 11.981,-5.17 6.984,-2.95 13.968,-6.02 21.297,-8.18 2.554,-0.79 6.871,-0.06 8.8,1.59 3.067,2.67 -0.058,5.45 -1.988,7.95 -6.02,7.78 -12.434,15.39 -17.605,23.62 -25.211,40.55 -43.836,83.7 -56.383,129.13 -1.137,4.2 -2.106,8.41 -3.125,12.66 -0.907,-0.11 -1.758,-0.17 -2.614,-0.28 -1.078,-4.66 -2.101,-9.31 -3.175,-13.97 -5.168,-21.41 -9.825,-42.93 -15.618,-64.17 -10.507,-38.72 -24.078,-76.31 -48.894,-109.53 -5.449,-7.33 -10.051,-15.16 -14.875,-22.89 -1.023,-1.64 -1.422,-3.63 -2.328,-6.02 13.398,-5.79 23.68,1.54 34.75,5.8 -4.199,-5.57 -8.403,-10.74 -13.403,-15.22 -4.937,-4.55 -10.332,-8.8 -16.125,-12.32 -5.566,-3.35 -11.925,-5.57 -19.078,-8.81 15.953,-10.27 30.95,-6.41 47.582,-0.62 -2.55,-5.22 -4.086,-8.58 -5.902,-11.87 -10.394,-19.36 -22.996,-37.48 -37.141,-54.63 -3.003,-3.63 -5.218,-7.83 -8.457,-12.66 17.774,-8.23 31.289,1.25 47.586,6.93 -12.437,-17.66 -25.043,-31.8 -40.035,-44.07 -8.574,-6.98 -17.66,-13.4 -26.347,-20.27 -2.895,-2.27 -5.168,-5.22 -8.688,-8.74 3.805,-1.65 5.902,-3.18 8.176,-3.47 19.082,-2.32 35.262,6.42 52.469,12.33 -1.704,-3.24 -3.575,-6.08 -6.133,-8.24 -14.137,-11.92 -28.391,-23.73 -42.586,-35.54 -2.84,-2.39 -5.793,-4.6 -8.692,-6.93 5.508,-6.48 12.211,-7.84 18.625,-8.07 10.223,-0.34 20.446,0.63 30.664,1.08 2.614,0.12 5.227,0.34 9.258,0.63 -1.929,-2.84 -2.84,-4.26 -3.863,-5.62 -8.531,-11.218 -17.941,-21.402 -28.215,-30.57 C 810.309,494.469 1358.4,179.77 1980,179.77 c 36.68,0 73.06,1.23 109.19,3.39 -4.25,3.75 -8.73,7.32 -13.36,10.66 -35.77,25.5 -76.25,42.02 -119.18,53.782 -20.39,5.617 -40.61,11.687 -60.71,18.109 -15.22,4.879 -27.88,13.629 -38.73,24.648 -4.71,4.821 -9.42,9.653 -13.91,14.59 -26.69,29.301 -59.05,51.5 -97.15,65.762 -19.99,7.488 -41,12.711 -61.56,18.898 -3.75,1.141 -7.55,2.051 -11.47,3.071 v 105.789 c 26.18,-21.098 53.91,-25.66 85.57,-14.797 1.99,0.68 3.94,1.219 5.97,2.019 -10.51,4.829 -19.43,8.52 -27.94,12.891 -14.37,7.387 -18.4,10.617 -22.26,16.406 5.96,-0.957 11.64,-2.207 17.43,-2.886 11.36,-1.313 22.71,-1.313 33.62,2.777 4.54,1.711 8.52,3.812 8.52,9.48 -25.39,10.789 -46.11,26.641 -62.47,47.481 3.64,-0.059 6.76,-0.91 9.88,-1.649 11.53,-2.781 23.23,-3.242 34.93,-1.359 4.42,0.68 9.54,1.129 10.56,6.406 -11.81,5.801 -23.45,10.742 -34.24,16.981 -11.02,6.301 -21.24,13.801 -28.45,24.359 16.35,-4.43 32.2,-9.308 49.63,1.024 -10.85,6.136 -20.5,10.91 -29.25,16.808 -8.74,5.852 -16.46,12.891 -23.22,22.488 24.24,-6.418 39.23,-7.378 45.03,-2.839 -7.27,5.222 -14.88,9.882 -21.35,15.671 -6.87,6.079 -13.12,13.008 -18.74,20.102 -5.22,6.477 -10.62,13.18 -12.95,22.039 11.24,-4.09 20.39,-11.59 33.56,-7.672 -9.54,12.61 -18.79,23.91 -26.97,35.832 -8.46,12.379 -13.97,26.008 -17.95,41.278 12.16,-4.309 22.04,-11.918 36.4,-7.719 -8.52,12.269 -20.89,19.82 -27.08,31.801 5.96,0.23 11.13,0.461 19.3,0.8 -18.57,18.168 -34.46,34.981 -41.68,57.52 10.62,-2.731 17.89,-3.07 21.7,-0.852 -3.87,5.789 -7.78,11.582 -11.48,17.43 -11.64,18.402 -20.66,37.883 -27.71,58.199 -1.93,5.684 -3.46,11.871 -10.84,15.793 -1.88,-3.75 -4.03,-6.929 -5.11,-10.39 -1.82,-6.25 -2.9,-12.719 -4.54,-19.02 -6.42,-24.082 -13.24,-47.93 -32.31,-66.609 -0.35,-0.34 -0.06,-1.25 -0.06,-2.5 9.6,-3.692 17.09,2.668 26.63,5.789"
             style="fill:#2c3c57;fill-opacity:1;fill-rule:nonzero;stroke:none"
             id="path48" />
          <path
             d="m 2618.35,1316.28 c 15.49,20.16 33.56,64.16 33.56,64.16 -103.68,-6.72 -209.69,1.42 -313.25,-0.95 l -44.26,-1.77 c -50.9,-2.93 -101.05,-9.29 -149.84,-22.28 -1.93,-0.51 -1.61,-3.48 0.37,-3.73 86.08,-11.08 158.59,-16.7 224.8,-20.03 28.44,-1.43 56.6,-8.41 84.2,-15.8 -155.78,-1.85 -318.46,-9 -547.14,-30.75 -9.98,-0.95 -10.02,-15.61 -0.04,-16.61 96.4,-9.64 193.53,-12.26 290.4,-14.85 188.99,-5.06 309.88,-12.69 423.47,-4 7.27,0.56 17.1,3.68 20.05,10.31 9.98,22.45 -4.15,47.39 -22.32,56.3"
             style="fill:#66a281;fill-opacity:1;fill-rule:nonzero;stroke:none"
             id="path50" />
          <path
             d="m 2613.63,1328.11 c -0.42,-0.98 -0.77,-1.99 -0.96,-3.05 -0.84,-4.53 0.71,-9.12 1.76,-13.61 2.77,-11.78 2.19,-24.06 1.59,-36.15 -13.59,-13.31 -12.3,-47.38 -0.06,-61.94 8.42,0.96 17.08,-5.07 19.11,-13.3 8.68,-0.19 17.36,-0.38 26.04,-0.57 2.03,-19.07 29.1,-20.64 47.85,-16.68 -3.6,-9.49 8.68,-17.13 18.72,-18.68 5.56,-0.86 11.89,-1.87 16.93,-4.22 4.05,-1.88 7.28,-4.62 8.47,-8.98 1.67,-6.17 -1.71,-13.51 1.92,-18.77 6.39,-9.28 23.34,1.03 31.69,-6.55 4.83,-4.38 3.92,-12.36 7.5,-17.8 3.83,-5.8 11.58,-7.24 18.47,-8.16 14.33,-1.92 28.67,-3.84 43,-5.76 3.07,-0.41 6.13,-0.82 9.2,-1.23 13.89,-1.86 30.23,-5.53 35.44,-18.55 24.62,-14.7 53.62,-21.96 82.26,-20.59 6.55,0.32 13.51,0.99 19.32,-2.07 7.68,-4.04 10.85,-13.19 16.38,-19.88 20.74,-25.09 67.31,-10.12 88.81,-34.55 5.97,-6.79 9.03,-15.801 15.3,-22.309 5.65,-5.879 16.91,-5.242 20.88,-12.359 7.6,-13.633 83.42,-41.282 157.47,-63.731 25.19,-7.633 48.64,-20.109 69.1,-36.66 l 13.38,-10.82 c 68.22,84.531 129.04,175.269 181.28,271.379 118.79,273.17 187.72,470.34 217.11,810.86 -12.94,-30.36 -84.37,-160.54 -331.85,-74.73 -66.46,23.05 -126.34,43.49 -194.43,22.41 -82.84,-29.1 -332.16,-58.25 -417.43,-84.36 -228.73,-109.21 -196.43,-85.12 -481.95,-100.89 0.01,-0.06 -18.42,0.13 -54.91,0.04 -9.93,-0.02 -19.89,0.93 -29.71,2.48 -172.74,27.19 -371.78,-18.82 -529.2,54.82 -183.5,79.35 -98.4,-4.91 -309.63,62.45 -100.46,55.87 -99.28,-39.73 -192.54,27.44 -76.83,99.22 -232.32,43.34 -313.335,22.44 -13.734,-3.54 -26.945,-8.69 -40.023,-14.19 -114.84,-48.25 -275.754,89.24 -384.617,17.48 -90.043,-63.82 -160.594,69.63 -252.547,8.35 -21.078,33.79 -43.566,66.43 -69.734,96.59 -0.383,-58.53 2.261,-101.69 7.441,-158.96 43.465,-65.47 118.027,-95.67 177.109,-142.41 -64.925,20.17 -133.265,54.02 -173.703,108.85 3.524,-32.3 7.891,-64.39 13.117,-96.13 70.915,-119.41 258.653,-80.46 306.297,-221.8 l -2.16,-1.31 c -63.89,139.28 -233.648,74.48 -300.617,202.55 16.238,-91.85 39.477,-181.31 69.062,-267.84 9.008,-26.34 18.543,-52.43 28.723,-78.2 75.77,15.24 152.664,24.05 229.125,35.2 34.129,27.72 31.777,90.93 54.727,129.67 1.152,-0.09 1.418,-0.11 2.566,-0.2 16.356,-37.7 32.656,-75.41 52.414,-112.26 22.5,13.89 448.005,0.22 729.975,12.12 60.51,2.56 94.54,28.6 94.54,28.6 0,0 16.56,15.97 -27.31,24.12 0.13,0.01 -240.01,43.26 -267.57,52.75 -38.85,22.16 -79.68,39.52 -123.38,48.9 l -12.68,2.46 c -4.27,0.75 -8.51,1.55 -12.83,2.14 -108.112,16.72 -233.46,41.1 -325.382,115.26 136.704,3.17 275.645,2.63 415.632,0.49 0,0 896.89,-19.6 1159.34,-9.57 6.78,0.26 13.5,0.27 20.28,-0.01 355.24,-14.61 755.66,5.45 1110.76,-2.55 -203.98,-137.18 -290.55,-167.25 -484.25,-208.17 0,0 -49.23,-12.79 -55.93,-13.16 -11.58,-2.99 -23.42,-6.16 -35.79,-9.71 -13.46,-4.24 -27.02,-7.94 -40.65,-11.19 -5.72,-1.32 -42.77,-12.27 -91.81,-17.38 -13.11,-1.36 -26.27,-0.21 -54.99,-6.47 -13.12,-2.86 -20.41,-17.41 -23.38,-30.5 l -4.73,-20.89"
             style="fill:#2c3c57;fill-opacity:1;fill-rule:nonzero;stroke:none"
             id="path52" />
          <path
             d="m 1340.44,1339.4 c 14.49,7.81 542.56,-7.05 517.86,33.09 -10.28,1.86 -33.3,7.82 -43.44,9.65 -42.63,11.49 -411.5,4.11 -455.13,0.66 l -19.29,-43.4"
             style="fill:#66a281;fill-opacity:1;fill-rule:nonzero;stroke:none"
             id="path54" />
          <path
             d="m 1760.2,1412.88 c 0.29,13.54 0.19,25.13 0.59,37.89 -0.01,7.44 0.4,12.03 4.41,16.17 8.88,10.93 23.13,14.82 33.76,19.7 16.35,7.49 33.21,10.88 49.98,14.32 5.27,1.03 10.58,1.58 15.88,2.2 -2.17,-0.14 -4.38,-0.29 -6.49,-0.44 -1.32,-0.1 -2.59,-0.2 -3.89,-0.3 -2.94,-0.23 -5.84,-0.46 -8.64,-0.69 -1.42,-0.12 -2.81,-0.24 -4.19,-0.37 -2.56,-0.22 -5.05,-0.45 -7.45,-0.69 -1.36,-0.13 -2.7,-0.27 -4,-0.4 -2.42,-0.25 -4.69,-0.51 -6.91,-0.77 -1.05,-0.13 -2.15,-0.25 -3.15,-0.37 -3.12,-0.4 -6.05,-0.8 -8.68,-1.21 -29.28,-4.6 -56.76,-16.87 -84.48,-34.61 v -85.59 c 0,-8.67 0.59,-3.71 1.11,-12.32 11.58,-3.17 23.88,2.09 31.39,4.98 0.05,-0.13 0.66,28.55 0.76,42.5"
             style="fill:#66a281;fill-opacity:1;fill-rule:nonzero;stroke:none"
             id="path56" />
          <path
             d="m 2364.26,1434.65 c 0.35,11.24 -1.01,24.19 2.86,34.14 3.07,7.62 9.31,8.6 14.29,10.14 l -0.05,0.59 -0.98,-0.26 c -2.32,-0.59 -4.63,-1.29 -6.93,-2.04 -0.96,-0.31 -1.91,-0.63 -2.86,-0.98 -3.02,-1.14 -6,-2.45 -8.9,-4.25 -4.2,-2.61 -8.32,-6.54 -11.29,-12.22 -3.12,-5.98 -3.43,-13.6 -3.48,-21.18 -0.19,-11.55 -1.35,-34.69 -2.26,-71.37 -0.06,-2.63 -0.18,-5.11 -0.27,-7.69 l 19.08,1.16 c 0.25,23.6 0.58,53.54 0.79,73.96"
             style="fill:#66a281;fill-opacity:1;fill-rule:nonzero;stroke:none"
             id="path58" />
          <path
             d="m 1401.74,1413.52 c 4.65,-5.99 10.35,-4.79 15.79,-5.31 -0.08,14.97 5.64,27.61 11.01,32.29 1.73,1.5 2.66,2.09 6.11,3.98 9.38,5.13 40.06,22.37 62.18,28.94 -15,-2.66 -30,-5.33 -44.97,-8.22 -20.64,-4 -39.25,-5.37 -56.39,-21.78 -2.7,-2.59 -5.42,-5.37 -7.49,-9.26 -0.61,-1.15 -0.98,-2.59 -1.39,-3.99 4.73,-6.22 8.68,-3.78 15.15,-16.65"
             style="fill:#66a281;fill-opacity:1;fill-rule:nonzero;stroke:none"
             id="path60" />
          <path
             d="m 3239.6,1494.55 -336.68,36.2 -139.11,14 -224.88,22.63 c -264.72,29 -662.02,32.43 -930.91,-7.86 -0.97,-0.15 -223.01,-37.44 -288.14,-48.37 -6.33,-1.06 -86.31,-15.95 -122.43,-23.36 -6.28,-1.28 -11.38,-2.37 -14.38,-3.09 l -4.78,-0.93 c 2.77,-17.99 6.05,-27.67 6.05,-27.67 7.36,-31.59 16.89,-65.11 16.96,-65.12 4.31,-0.81 10.13,0.69 14.53,0.96 5.06,0.3 15.32,-3.98 20.37,-3.71 10.09,0.52 20.17,0.97 30.26,1.36 19.65,0.77 39.31,1.31 58.97,1.81 34,0.86 51.32,3.07 89.06,6.13 12.5,1.02 13.47,43.08 13.34,43.2 -8.06,-6.52 -10.32,-17.54 -10.24,-32.19 -5.34,0.51 -10.93,-0.67 -15.48,5.2 -5.22,12.92 -10.22,10.21 -14.85,16.3 0.4,1.37 0.76,2.78 1.36,3.9 2.03,3.81 4.67,6.59 7.34,9.07 16.89,15.67 36.47,17.57 55.28,21.32 14.66,2.93 29.38,5.45 44.08,8.05 29.33,5.18 58.69,9.92 88.06,13.48 14.7,1.78 29.44,2.51 44.18,3.16 24.36,1.08 52.72,3.54 74.53,-16.82 4.01,-4.14 4.42,-8.74 4.41,-16.17 0.24,-7.72 -0.36,-45.17 -0.88,-84.49 5.57,-1.52 13.81,-3.78 22.44,-6.14 -0.53,8.61 -1.12,3.66 -1.12,12.32 v 85.6 c 27.72,17.73 55.2,30 84.48,34.6 2.63,0.41 5.56,0.82 8.68,1.21 1,0.12 2.1,0.24 3.15,0.37 2.22,0.26 4.49,0.52 6.91,0.77 1.3,0.14 2.64,0.27 4,0.4 2.41,0.24 4.89,0.47 7.45,0.7 1.38,0.12 2.77,0.24 4.19,0.36 2.8,0.24 5.7,0.46 8.64,0.69 1.3,0.1 2.57,0.2 3.89,0.3 2.11,0.15 4.32,0.3 6.49,0.44 2.06,0.15 4.06,0.29 6.16,0.43 l 0.5,0.03 c 4.51,0.29 9.14,0.57 13.82,0.84 1.51,0.08 3.05,0.16 4.59,0.25 49.63,2.72 105.49,4.1 133.24,3.84 116.85,-1.07 165.69,0 233.75,-19.42 10.56,-3.01 29.63,-8.09 43.38,-17.35 7.92,-5.33 15.57,-14.98 17.03,-28.4 0,0 -0.94,-52.32 -1.61,-85.58 l 28.71,1.74 c 0.09,2.57 0.18,5.05 0.27,7.69 1.02,29.23 2.09,61.32 2.26,71.36 0.05,7.58 0.36,15.21 3.48,21.18 2.97,5.68 7.09,9.61 11.29,12.22 2.9,1.81 5.88,3.11 8.9,4.25 0.95,0.35 1.9,0.67 2.86,0.98 2.3,0.75 4.61,1.45 6.93,2.04 l 0.98,0.26 c 3.21,0.81 6.43,1.58 9.61,2.45 10.01,2.73 25.11,3.28 35.7,3.88 18.45,1.05 36.92,0.93 55.36,-0.52 39.86,-3.15 79.78,-6.73 119.69,-10.35 48.63,-4.42 97.34,-8.75 145.95,-12.59 48.63,-3.85 97.73,-8.23 144.52,-30.27 6.38,-3 12.81,-6.41 18.14,-12.49 6.17,-7.04 8.67,-16.1 9.57,-26.74 l 0.43,0.12 c 0,0 17.01,1.72 17.4,5.81 17.5,6.3 34.91,13.48 52.2,21.72 15.88,6.89 250.12,66.63 249.67,74.01"
             style="fill:#2c3c57;fill-opacity:1;fill-rule:nonzero;stroke:none"
             id="path62" />
        </g>
      </g>
      <path
         d="M 3779.95,1980 C 3789.25,670.059 2387.34,-217.738 1207.15,350.809 -162.418,998.762 -162.359,2961.35 1207.18,3609.26 2387.41,4177.64 3789.34,3290.01 3779.95,1980 Z"
         style="fill:none;stroke:#2c3c57;stroke-width:38.1211;stroke-linecap:butt;stroke-linejoin:miter;stroke-miterlimit:10;stroke-dasharray:none;stroke-opacity:1"
         id="path64" />
      <path
         d="m 998.766,2056.52 c 0,541.92 439.314,981.23 981.234,981.23 541.92,0 981.24,-439.31 981.24,-981.23"
         style="fill:none;stroke:#2c3c57;stroke-width:37.0689;stroke-linecap:butt;stroke-linejoin:miter;stroke-miterlimit:4;stroke-dasharray:none;stroke-opacity:1"
         id="path66" />
      <path
         d="m 1503.06,2494 c -7.56,4.14 -15.26,7.56 -23.09,10.26 -7.83,2.7 -15.17,4.05 -22,4.05 -8.47,0 -15.12,-1.71 -19.98,-5.13 -4.86,-3.42 -7.29,-8.55 -7.29,-15.39 0,-4.68 1.84,-8.87 5.53,-12.56 3.69,-3.69 8.46,-6.97 14.31,-9.85 5.85,-2.88 11.92,-5.49 18.23,-7.83 5.75,-2.16 11.47,-4.73 17.14,-7.7 5.67,-2.96 10.76,-6.66 15.26,-11.06 4.5,-4.42 8.1,-9.9 10.8,-16.47 2.7,-6.58 4.05,-14.63 4.05,-24.17 0,-10.08 -2.62,-19.44 -7.83,-28.08 -5.23,-8.64 -12.88,-15.62 -22.95,-20.93 -10.09,-5.3 -22.5,-7.96 -37.27,-7.96 -7.55,0 -15.25,0.77 -23.07,2.3 -7.84,1.52 -15.53,3.86 -23.09,7.02 -7.56,3.15 -14.85,7.15 -21.87,12.01 l 17.28,30.51 c 4.67,-3.42 9.76,-6.44 15.25,-9.04 5.49,-2.62 11.03,-4.64 16.61,-6.08 5.58,-1.44 10.71,-2.16 15.39,-2.16 4.67,0 9.4,0.67 14.17,2.03 4.77,1.35 8.73,3.64 11.88,6.88 3.15,3.24 4.73,7.74 4.73,13.5 0,3.96 -1.31,7.56 -3.92,10.8 -2.61,3.24 -6.12,6.21 -10.53,8.91 -4.41,2.7 -9.23,5.04 -14.44,7.02 -6.12,2.34 -12.42,5.04 -18.9,8.1 -6.48,3.06 -12.56,6.79 -18.23,11.21 -5.67,4.4 -10.26,9.89 -13.77,16.46 -3.51,6.57 -5.26,14.63 -5.26,24.17 0,11.52 2.56,21.51 7.69,29.97 5.13,8.46 12.37,15.17 21.74,20.12 9.35,4.95 20.16,7.69 32.4,8.23 16.01,0 29.02,-1.89 39.01,-5.67 9.99,-3.78 18.95,-8.28 26.87,-13.5 L 1503.06,2494"
         style="fill:#2c3c57;fill-opacity:1;fill-rule:nonzero;stroke:none"
         id="path68" />
      <path
         d="m 1707.44,2359.81 c -2.16,-1.8 -6.17,-4.23 -12.01,-7.29 -5.85,-3.06 -13.01,-5.76 -21.47,-8.1 -8.46,-2.33 -17.82,-3.42 -28.08,-3.24 -15.66,0.36 -29.65,3.19 -41.98,8.51 -12.33,5.3 -22.77,12.55 -31.32,21.73 -8.55,9.18 -15.08,19.71 -19.57,31.59 -4.51,11.88 -6.76,24.57 -6.76,38.07 0,15.12 2.3,28.98 6.89,41.58 4.59,12.6 11.16,23.49 19.71,32.67 8.54,9.18 18.76,16.29 30.64,21.33 11.89,5.04 25.02,7.56 39.42,7.56 13.32,0 25.11,-1.8 35.37,-5.4 10.26,-3.6 18.63,-7.47 25.11,-11.61 l -15.38,-36.99 c -4.51,3.42 -10.49,6.98 -17.96,10.67 -7.47,3.69 -16.07,5.53 -25.79,5.53 -7.55,0 -14.8,-1.58 -21.73,-4.72 -6.93,-3.15 -13.05,-7.61 -18.36,-13.37 -5.31,-5.76 -9.49,-12.47 -12.56,-20.11 -3.06,-7.66 -4.59,-15.98 -4.59,-24.98 0,-9.54 1.4,-18.27 4.19,-26.19 2.79,-7.92 6.79,-14.71 12.02,-20.38 5.21,-5.68 11.47,-10.04 18.76,-13.1 7.29,-3.06 15.52,-4.59 24.7,-4.59 10.62,0 19.72,1.71 27.27,5.13 7.57,3.42 13.32,7.02 17.29,10.8 l 16.19,-35.1"
         style="fill:#2c3c57;fill-opacity:1;fill-rule:nonzero;stroke:none"
         id="path70" />
      <path
         d="m 1917.78,2542.06 v -198.72 h -39.15 v 80.73 h -88.84 v -80.73 h -39.14 v 198.72 h 39.14 v -80.19 h 88.84 v 80.19 h 39.15"
         style="fill:#2c3c57;fill-opacity:1;fill-rule:nonzero;stroke:none"
         id="path72" />
      <path
         d="m 2001.46,2442.43 c 0,-8.82 1.58,-17.06 4.74,-24.71 3.15,-7.65 7.55,-14.39 13.23,-20.24 5.67,-5.86 12.23,-10.4 19.7,-13.64 7.47,-3.24 15.61,-4.86 24.44,-4.86 8.46,0 16.34,1.62 23.63,4.86 7.29,3.24 13.62,7.78 19.03,13.64 5.4,5.85 9.63,12.59 12.69,20.24 3.06,7.65 4.59,15.89 4.59,24.71 0,9 -1.58,17.37 -4.72,25.11 -3.16,7.74 -7.47,14.54 -12.97,20.38 -5.49,5.85 -11.92,10.4 -19.3,13.64 -7.38,3.24 -15.39,4.86 -24.03,4.86 -8.64,0 -16.65,-1.62 -24.03,-4.86 -7.38,-3.24 -13.87,-7.79 -19.44,-13.64 -5.59,-5.84 -9.9,-12.64 -12.96,-20.38 -3.06,-7.74 -4.6,-16.11 -4.6,-25.11 z m -40.49,0 c 0,13.68 2.61,26.64 7.83,38.88 5.22,12.24 12.46,23.08 21.73,32.54 9.28,9.45 20.03,16.87 32.27,22.27 12.24,5.4 25.38,8.1 39.42,8.1 13.86,0 26.91,-2.7 39.15,-8.1 12.24,-5.4 23.09,-12.82 32.53,-22.27 9.45,-9.46 16.83,-20.3 22.14,-32.54 5.31,-12.24 7.97,-25.2 7.97,-38.88 0,-14.04 -2.66,-27.18 -7.97,-39.42 -5.31,-12.24 -12.69,-23 -22.14,-32.26 -9.44,-9.27 -20.29,-16.52 -32.53,-21.74 -12.24,-5.22 -25.29,-7.83 -39.15,-7.83 -14.04,0 -27.18,2.61 -39.42,7.83 -12.24,5.22 -22.99,12.47 -32.27,21.74 -9.27,9.26 -16.51,20.02 -21.73,32.26 -5.22,12.24 -7.83,25.38 -7.83,39.42"
         style="fill:#2c3c57;fill-opacity:1;fill-rule:nonzero;stroke:none"
         id="path74" />
      <path
         d="m 2235.56,2442.43 c 0,-8.82 1.57,-17.06 4.73,-24.71 3.15,-7.65 7.55,-14.39 13.23,-20.24 5.67,-5.86 12.23,-10.4 19.7,-13.64 7.47,-3.24 15.62,-4.86 24.44,-4.86 8.46,0 16.34,1.62 23.63,4.86 7.29,3.24 13.62,7.78 19.03,13.64 5.41,5.85 9.63,12.59 12.7,20.24 3.05,7.65 4.58,15.89 4.58,24.71 0,9 -1.57,17.37 -4.72,25.11 -3.16,7.74 -7.47,14.54 -12.97,20.38 -5.48,5.85 -11.92,10.4 -19.3,13.64 -7.38,3.24 -15.39,4.86 -24.03,4.86 -8.64,0 -16.65,-1.62 -24.03,-4.86 -7.38,-3.24 -13.86,-7.79 -19.44,-13.64 -5.59,-5.84 -9.9,-12.64 -12.96,-20.38 -3.06,-7.74 -4.59,-16.11 -4.59,-25.11 z m -40.5,0 c 0,13.68 2.6,26.64 7.83,38.88 5.22,12.24 12.46,23.08 21.73,32.54 9.28,9.45 20.03,16.87 32.27,22.27 12.24,5.4 25.38,8.1 39.42,8.1 13.86,0 26.91,-2.7 39.15,-8.1 12.24,-5.4 23.08,-12.82 32.53,-22.27 9.45,-9.46 16.83,-20.3 22.15,-32.54 5.3,-12.24 7.96,-25.2 7.96,-38.88 0,-14.04 -2.66,-27.18 -7.96,-39.42 -5.32,-12.24 -12.7,-23 -22.15,-32.26 -9.45,-9.27 -20.29,-16.52 -32.53,-21.74 -12.24,-5.22 -25.29,-7.83 -39.15,-7.83 -14.04,0 -27.18,2.61 -39.42,7.83 -12.24,5.22 -22.99,12.47 -32.27,21.74 -9.27,9.26 -16.51,20.02 -21.73,32.26 -5.23,12.24 -7.83,25.38 -7.83,39.42"
         style="fill:#2c3c57;fill-opacity:1;fill-rule:nonzero;stroke:none"
         id="path76" />
      <path
         d="m 2441.29,2542.06 h 39.16 v -160.92 h 93.4 v -37.8 h -132.56 v 198.72"
         style="fill:#2c3c57;fill-opacity:1;fill-rule:nonzero;stroke:none"
         id="path78" />
      <path
         d="m 1412.47,2091.14 h 23.22 c 9.9,0 18.9,1.3 27,3.92 8.1,2.6 15.08,6.42 20.93,11.46 5.85,5.05 10.34,11.39 13.49,19.05 3.16,7.64 4.73,16.42 4.73,26.32 0,12.96 -2.11,23.53 -6.34,31.73 -4.23,8.18 -9.45,14.53 -15.66,19.03 -6.21,4.5 -12.55,7.61 -19.04,9.32 -6.48,1.7 -11.97,2.56 -16.46,2.56 h -31.87 z m -39.14,-37.8 v 198.72 h 59.39 c 19.99,0 36.99,-2.97 51.03,-8.91 14.04,-5.94 25.33,-13.86 33.89,-23.76 8.54,-9.9 14.8,-20.97 18.76,-33.21 3.96,-12.24 5.94,-24.57 5.94,-36.99 0,-14.76 -2.65,-28.04 -7.96,-39.83 -5.32,-11.78 -12.56,-21.87 -21.74,-30.24 -9.18,-8.36 -19.8,-14.76 -31.86,-19.16 -12.06,-4.42 -24.84,-6.62 -38.34,-6.62 h -69.11"
         style="fill:#2c3c57;fill-opacity:1;fill-rule:nonzero;stroke:none"
         id="path80" />
      <path
         d="m 1585.54,2252.06 h 39.15 v -198.72 h -39.15 v 198.72"
         style="fill:#2c3c57;fill-opacity:1;fill-rule:nonzero;stroke:none"
         id="path82" />
      <path
         d="m 1786.15,2204 c -7.56,4.14 -15.26,7.56 -23.09,10.26 -7.83,2.7 -15.17,4.05 -22,4.05 -8.47,0 -15.12,-1.71 -19.98,-5.13 -4.86,-3.42 -7.29,-8.55 -7.29,-15.39 0,-4.68 1.84,-8.86 5.53,-12.56 3.69,-3.69 8.46,-6.97 14.31,-9.85 5.85,-2.88 11.92,-5.49 18.23,-7.83 5.75,-2.16 11.47,-4.73 17.14,-7.69 5.68,-2.97 10.76,-6.66 15.26,-11.07 4.49,-4.42 8.1,-9.9 10.8,-16.48 2.69,-6.57 4.05,-14.62 4.05,-24.16 0,-10.09 -2.62,-19.44 -7.83,-28.08 -5.23,-8.64 -12.87,-15.62 -22.95,-20.93 -10.09,-5.3 -22.5,-7.96 -37.27,-7.96 -7.55,0 -15.25,0.77 -23.08,2.29 -7.83,1.54 -15.52,3.87 -23.08,7.02 -7.56,3.16 -14.85,7.15 -21.87,12.01 l 17.28,30.52 c 4.67,-3.42 9.76,-6.44 15.25,-9.04 5.49,-2.61 11.03,-4.65 16.61,-6.08 5.57,-1.44 10.71,-2.16 15.39,-2.16 4.67,0 9.4,0.67 14.17,2.03 4.77,1.35 8.73,3.64 11.88,6.88 3.15,3.24 4.73,7.74 4.73,13.5 0,3.96 -1.31,7.56 -3.92,10.8 -2.61,3.23 -6.12,6.21 -10.53,8.91 -4.41,2.7 -9.23,5.03 -14.44,7.02 -6.12,2.34 -12.42,5.04 -18.91,8.1 -6.47,3.06 -12.55,6.79 -18.22,11.2 -5.67,4.41 -10.26,9.91 -13.77,16.47 -3.51,6.57 -5.26,14.63 -5.26,24.17 0,11.52 2.56,21.51 7.69,29.97 5.13,8.46 12.37,15.17 21.73,20.12 9.36,4.95 20.17,7.69 32.41,8.23 16.02,0 29.02,-1.89 39.01,-5.67 9.99,-3.78 18.95,-8.28 26.87,-13.5 L 1786.15,2204"
         style="fill:#2c3c57;fill-opacity:1;fill-rule:nonzero;stroke:none"
         id="path84" />
      <path
         d="m 1827.99,2252.06 h 133.92 v -37.8 h -48.33 v -160.92 h -39.15 v 160.92 h -46.44 v 37.8"
         style="fill:#2c3c57;fill-opacity:1;fill-rule:nonzero;stroke:none"
         id="path86" />
      <path
         d="m 2099.76,2174.44 c -1,-3.34 -2.62,-6.53 -4.86,-9.59 -2.28,-3.06 -5.36,-5.58 -9.34,-7.56 -3.95,-1.98 -8.9,-2.97 -14.83,-2.97 h -27.82 v 59.94 h 28.07 c 6.86,0 12.29,-1.17 16.35,-3.51 4.05,-2.34 7.07,-5.22 9.04,-8.64 1.98,-3.42 3.27,-6.79 3.91,-10.12 0.64,-3.34 0.95,-6.08 0.95,-8.24 0,-2.88 -0.5,-5.99 -1.47,-9.31 z m 10.53,-48.88 c 6.34,3.6 11.67,7.94 15.92,13.1 5.48,6.65 9.45,14.04 11.88,22.14 2.43,8.1 3.64,16.2 3.64,24.3 0,10.26 -1.71,19.48 -5.14,27.68 -3.4,8.18 -8.4,15.21 -14.96,21.06 -6.59,5.84 -14.72,10.35 -24.44,13.5 -9.72,3.14 -20.8,4.72 -33.23,4.72 h -60.2 v -198.72 h 39.15 v 63.18 h 26.08 l 41.96,-63.18 h 45.63 l -46.29,72.22"
         style="fill:#2c3c57;fill-opacity:1;fill-rule:nonzero;stroke:none"
         id="path88" />
      <path
         d="m 2193.03,2252.06 h 39.15 v -198.72 h -39.15 v 198.72"
         style="fill:#2c3c57;fill-opacity:1;fill-rule:nonzero;stroke:none"
         id="path90" />
      <path
         d="m 2436.57,2069.81 c -2.16,-1.8 -6.17,-4.23 -12.01,-7.29 -5.85,-3.06 -13.02,-5.77 -21.47,-8.11 -8.47,-2.32 -17.82,-3.41 -28.08,-3.23 -15.66,0.36 -29.66,3.19 -41.99,8.5 -12.33,5.31 -22.77,12.56 -31.32,21.74 -8.55,9.18 -15.08,19.71 -19.58,31.59 -4.49,11.88 -6.74,24.57 -6.74,38.07 0,15.12 2.29,28.98 6.88,41.58 4.59,12.6 11.16,23.49 19.71,32.67 8.55,9.18 18.76,16.29 30.65,21.33 11.88,5.04 25.02,7.56 39.42,7.56 13.32,0 25.1,-1.8 35.37,-5.4 10.25,-3.6 18.63,-7.47 25.1,-11.61 l -15.38,-36.99 c -4.5,3.42 -10.49,6.98 -17.96,10.67 -7.47,3.69 -16.06,5.53 -25.78,5.53 -7.56,0 -14.81,-1.58 -21.74,-4.72 -6.92,-3.15 -13.06,-7.61 -18.36,-13.37 -5.31,-5.76 -9.49,-12.47 -12.56,-20.11 -3.05,-7.66 -4.58,-15.98 -4.58,-24.98 0,-9.55 1.39,-18.27 4.18,-26.2 2.79,-7.91 6.8,-14.7 12.02,-20.38 5.21,-5.67 11.47,-10.04 18.76,-13.09 7.29,-3.07 15.53,-4.59 24.71,-4.59 10.62,0 19.71,1.7 27.27,5.13 7.55,3.42 13.31,7.02 17.27,10.8 l 16.21,-35.1"
         style="fill:#2c3c57;fill-opacity:1;fill-rule:nonzero;stroke:none"
         id="path92" />
      <path
         d="m 2466.27,2252.06 h 133.93 v -37.8 h -48.34 v -160.92 h -39.14 v 160.92 h -46.45 v 37.8"
         style="fill:#2c3c57;fill-opacity:1;fill-rule:nonzero;stroke:none"
         id="path94" />
    </g>
  </g>
</svg>
